<svg xmlns="http://www.w3.org/2000/svg" version="1.1" xmlns:xlink="http://www.w3.org/1999/xlink" xmlns:svgjs="http://svgjs.com/svgjs" width="1440" height="560" preserveAspectRatio="none" viewBox="0 0 1440 560"><g mask="url(&quot;#SvgjsMask3628&quot;)" fill="none"><rect width="1440" height="560" x="0" y="0" fill="url(#SvgjsLinearGradient3629)"></rect><path d="M1243 227L1242 485" stroke-width="6" stroke="url(#SvgjsLinearGradient3630)" stroke-linecap="round" class="Down"></path><path d="M892 289L891 113" stroke-width="8" stroke="url(#SvgjsLinearGradient3631)" stroke-linecap="round" class="Up"></path><path d="M1227 522L1226 873" stroke-width="6" stroke="url(#SvgjsLinearGradient3630)" stroke-linecap="round" class="Down"></path><path d="M1366 319L1365 -53" stroke-width="10" stroke="url(#SvgjsLinearGradient3631)" stroke-linecap="round" class="Up"></path><path d="M1203 76L1202 -139" stroke-width="6" stroke="url(#SvgjsLinearGradient3630)" stroke-linecap="round" class="Down"></path><path d="M1406 378L1405 626" stroke-width="6" stroke="url(#SvgjsLinearGradient3631)" stroke-linecap="round" class="Up"></path><path d="M213 376L212 57" stroke-width="8" stroke="url(#SvgjsLinearGradient3631)" stroke-linecap="round" class="Up"></path><path d="M850 245L849 39" stroke-width="10" stroke="url(#SvgjsLinearGradient3630)" stroke-linecap="round" class="Down"></path><path d="M1216 475L1215 164" stroke-width="8" stroke="url(#SvgjsLinearGradient3630)" stroke-linecap="round" class="Down"></path><path d="M92 425L91 818" stroke-width="6" stroke="url(#SvgjsLinearGradient3631)" stroke-linecap="round" class="Up"></path><path d="M1285 217L1284 636" stroke-width="8" stroke="url(#SvgjsLinearGradient3630)" stroke-linecap="round" class="Down"></path><path d="M86 125L85 -109" stroke-width="10" stroke="url(#SvgjsLinearGradient3631)" stroke-linecap="round" class="Up"></path><path d="M1127 392L1126 62" stroke-width="8" stroke="url(#SvgjsLinearGradient3630)" stroke-linecap="round" class="Down"></path><path d="M584 480L583 694" stroke-width="6" stroke="url(#SvgjsLinearGradient3631)" stroke-linecap="round" class="Up"></path><path d="M759 254L758 624" stroke-width="8" stroke="url(#SvgjsLinearGradient3630)" stroke-linecap="round" class="Down"></path><path d="M572 208L571 16" stroke-width="10" stroke="url(#SvgjsLinearGradient3630)" stroke-linecap="round" class="Down"></path><path d="M266 393L265 797" stroke-width="6" stroke="url(#SvgjsLinearGradient3630)" stroke-linecap="round" class="Down"></path><path d="M784 331L783 570" stroke-width="8" stroke="url(#SvgjsLinearGradient3631)" stroke-linecap="round" class="Up"></path><path d="M566 471L565 872" stroke-width="6" stroke="url(#SvgjsLinearGradient3631)" stroke-linecap="round" class="Up"></path><path d="M1005 23L1004 221" stroke-width="6" stroke="url(#SvgjsLinearGradient3630)" stroke-linecap="round" class="Down"></path><path d="M1281 490L1280 134" stroke-width="8" stroke="url(#SvgjsLinearGradient3630)" stroke-linecap="round" class="Down"></path><path d="M1402 427L1401 247" stroke-width="10" stroke="url(#SvgjsLinearGradient3630)" stroke-linecap="round" class="Down"></path><path d="M660 99L659 -58" stroke-width="10" stroke="url(#SvgjsLinearGradient3631)" stroke-linecap="round" class="Up"></path><path d="M195 31L194 425" stroke-width="6" stroke="url(#SvgjsLinearGradient3630)" stroke-linecap="round" class="Down"></path><path d="M61 443L60 790" stroke-width="6" stroke="url(#SvgjsLinearGradient3630)" stroke-linecap="round" class="Down"></path><path d="M406 379L405 691" stroke-width="10" stroke="url(#SvgjsLinearGradient3630)" stroke-linecap="round" class="Down"></path><path d="M247 79L246 254" stroke-width="6" stroke="url(#SvgjsLinearGradient3630)" stroke-linecap="round" class="Down"></path><path d="M816 92L815 368" stroke-width="8" stroke="url(#SvgjsLinearGradient3630)" stroke-linecap="round" class="Down"></path><path d="M359 422L358 280" stroke-width="10" stroke="url(#SvgjsLinearGradient3630)" stroke-linecap="round" class="Down"></path><path d="M1319 378L1318 48" stroke-width="8" stroke="url(#SvgjsLinearGradient3631)" stroke-linecap="round" class="Up"></path><path d="M983 177L982 36" stroke-width="10" stroke="url(#SvgjsLinearGradient3630)" stroke-linecap="round" class="Down"></path><path d="M922 234L921 520" stroke-width="10" stroke="url(#SvgjsLinearGradient3630)" stroke-linecap="round" class="Down"></path><path d="M925 264L924 599" stroke-width="6" stroke="url(#SvgjsLinearGradient3630)" stroke-linecap="round" class="Down"></path><path d="M208 29L207 201" stroke-width="6" stroke="url(#SvgjsLinearGradient3630)" stroke-linecap="round" class="Down"></path><path d="M1384 513L1383 849" stroke-width="8" stroke="url(#SvgjsLinearGradient3630)" stroke-linecap="round" class="Down"></path><path d="M1251 107L1250 256" stroke-width="10" stroke="url(#SvgjsLinearGradient3630)" stroke-linecap="round" class="Down"></path></g><defs><mask id="SvgjsMask3628"><rect width="1440" height="560" fill="#ffffff"></rect></mask><linearGradient x1="15.28%" y1="-39.29%" x2="84.72%" y2="139.29%" gradientUnits="userSpaceOnUse" id="SvgjsLinearGradient3629"><stop stop-color="#0e2a47" offset="0"></stop><stop stop-color="rgba(30, 29, 12, 1)" offset="1"></stop></linearGradient><linearGradient x1="0%" y1="0%" x2="0%" y2="100%" id="SvgjsLinearGradient3630"><stop stop-color="rgba(244, 215, 33, 0)" offset="0"></stop><stop stop-color="rgba(244, 215, 33, 0.92)" offset="1"></stop></linearGradient><linearGradient x1="0%" y1="100%" x2="0%" y2="0%" id="SvgjsLinearGradient3631"><stop stop-color="rgba(244, 215, 33, 0)" offset="0"></stop><stop stop-color="rgba(244, 215, 33, 0.92)" offset="1"></stop></linearGradient></defs></svg>